<?xml version="1.0"?><svg fill="#000000" xmlns="http://www.w3.org/2000/svg" viewBox="0 0 50 50" width="50px" height="50px">    <path d="M 25 3 C 15.51 3 10.280859 3.000625 6.6308594 6.640625 C 3.0008594 10.270625 3 15.51 3 25 C 3 34.5 3.0008594 39.740859 6.6308594 43.380859 C 10.280859 47.000859 15.51 47 25 47 C 34.49 47 39.719141 46.999375 43.369141 43.359375 C 46.999141 39.729375 47 34.49 47 25 C 47 15.5 46.999141 10.259141 43.369141 6.6191406 C 39.719141 2.9991406 34.49 3 25 3 z M 25 9 C 29.09 9 33.180781 10.559453 36.300781 13.689453 C 42.540781 19.929453 42.540781 30.060547 36.300781 36.310547 C 33.180781 39.440547 29.080234 41 24.990234 41 C 20.900234 41 16.809453 39.440547 13.689453 36.310547 C 7.4594531 30.070547 7.4594531 19.939453 13.689453 13.689453 C 16.819453 10.559453 20.91 9 25 9 z M 17.320312 16 C 16.090313 16.07 15.009688 16.740547 14.429688 17.810547 C 13.839687 18.880547 13.860469 20.179766 14.480469 21.259766 C 15.070469 22.279766 15.660234 23.300313 16.240234 24.320312 L 18.050781 27.460938 C 19.360781 29.730937 20.660469 31.999766 21.980469 34.259766 C 22.650469 35.389766 23.700469 36 24.980469 36 C 25.080469 36 25.169531 36.000234 25.269531 35.990234 C 26.479531 35.900234 27.459844 35.260391 28.089844 34.150391 L 35.5 21.289062 C 35.93 20.559063 36.080937 19.78 35.960938 19 C 35.840937 18.07 35.319531 17.210391 34.519531 16.650391 C 33.719531 16.090391 32.740313 15.889844 31.820312 16.089844 C 30.720312 16.329844 29.829141 17.029766 29.369141 18.009766 C 28.899141 18.979766 28.919219 20.120156 29.449219 21.160156 C 29.709219 21.670156 30 22.26 30 23 C 30 24.58 28.04 25 27 25 C 24.83 25 24.040312 23.810313 22.570312 21.320312 L 21.570312 19.589844 C 21.240312 19.019844 20.929531 18.479297 20.519531 17.779297 C 19.809531 16.559297 18.680312 15.92 17.320312 16 z"/> </svg>